<?xml version="1.0" encoding="UTF-8"?>
<svg width="180px" height="180px" viewBox="0 0 180 180" version="1.1" xmlns="http://www.w3.org/2000/svg" xmlns:xlink="http://www.w3.org/1999/xlink">
  <title>Stimulus</title>
  <g id="Stimulus" stroke="none" stroke-width="1" fill="none" fill-rule="evenodd">
    <g id="Stimulus-Icon" transform="translate(9.000000, 9.000000)" fill="#000000" fill-rule="nonzero">
      <path d="M139.212,90.612 L128.655,90.612 C125.549716,90.7486594 122.514449,91.5789757 119.772,93.042 L46.872,135.864 C44.144322,137.339714 41.1148422,138.170974 38.016,138.294 L0,138.294 L0,155.356 C0.0727633739,158.932054 3.174954,161.986468 6.752,162 L156.248,162 C159.855898,161.985432 161.970572,159.882772 162,156.275 L162,138.213 L123.876,138.213 C120.777158,138.089974 117.747678,137.258714 115.02,135.783 L93.204,122.985 C92.2875808,122.528259 91.7083786,121.592432 91.7083786,120.5685 C91.7083786,119.544568 92.2875808,118.608741 93.204,118.152 L103.572,112.077 C106.112714,110.765401 109.131286,110.765401 111.672,112.077 L119.772,116.775 C122.509583,118.250221 125.547696,119.081315 128.655,119.205 L162,119.205 L162,90.612 L139.212,90.612 Z" id="Path"></path>
      <path d="M139.212,42.876 L128.655,42.876 C125.549716,43.0126594 122.514449,43.8429757 119.772,45.306 L46.872,88.155 C44.1394035,89.6184279 41.1128018,90.4488978 38.016,90.585 L0,90.585 L0,119.178 L33.345,119.178 C36.450284,119.041341 39.4855513,118.211024 42.228,116.748 L115.128,73.899 C117.860597,72.4355721 120.887198,71.6051022 123.984,71.469 L162,71.469 L162,42.876 L139.212,42.876 Z" id="Path"></path>
      <path d="M156.248,0 L5.752,0 C2.127543,0 0,2.127543 0,5.752 L0,23.814 L38.124,23.814 C41.2208018,23.9501022 44.2474035,24.7805721 46.98,26.244 L68.796,39.069 C69.6977088,39.5309591 70.2649066,40.4588441 70.2649066,41.472 C70.2649066,42.4851559 69.6977088,43.4130409 68.796,43.875 L58.428,49.977 C55.8872863,51.2885992 52.8687137,51.2885992 50.328,49.977 L42.228,45.252 C39.4855513,43.7889757 36.450284,42.9586594 33.345,42.822 L0,42.822 L0,71.415 L33.345,71.415 C36.4523041,71.2913152 39.4904169,70.4602205 42.228,68.985 L115.128,26.163 C117.855678,24.6872861 120.885158,23.8560264 123.984,23.733 L162,23.733 L162,5.671 C161.955799,2.078229 159.841147,0 156.248,0 Z" id="Path"></path>
    </g>
  </g>
</svg>
